<svg xmlns="http://www.w3.org/2000/svg" viewBox="0 0 800 480"><defs><linearGradient id="g" x1="0" x2="1" y1="1" y2="0"><stop offset="0" stop-color="#A855F7" stop-opacity=".30"/><stop offset="1" stop-color="#3B82F6" stop-opacity=".40"/></linearGradient></defs><rect width="800" height="480" rx="28" fill="rgba(255,255,255,0.06)" stroke="rgba(255,255,255,0.12)"/><circle cx="170" cy="140" r="120" fill="url(#g)"/><g fill="none" stroke="rgba(255,255,255,0.85)" stroke-width="10" stroke-linecap="round" stroke-linejoin="round"><path d="M300 320c-40 0-70-30-70-70 0-35 24-63 56-69 12-44 52-76 100-76 46 0 86 29 99 70 36 4 65 34 65 71 0 41-33 74-74 74H300z"/><path d="M355 350v60M440 350v60M525 350v60"/></g><g fill="none" stroke="rgba(255,255,255,0.55)" stroke-width="8"><path d="M355 410h170"/></g></svg>