<svg xmlns="http://www.w3.org/2000/svg" viewBox="0 0 800 480"><defs><linearGradient id="g" x1="0" x2="1" y1="0" y2="1"><stop offset="0" stop-color="#3B82F6" stop-opacity=".55"/><stop offset="1" stop-color="#A855F7" stop-opacity=".35"/></linearGradient></defs><rect width="800" height="480" rx="28" fill="rgba(255,255,255,0.06)" stroke="rgba(255,255,255,0.12)"/><circle cx="620" cy="120" r="120" fill="url(#g)"/><g fill="none" stroke="rgba(255,255,255,0.75)" stroke-width="10" stroke-linecap="round"><rect x="90" y="120" width="360" height="70" rx="14"/><rect x="90" y="215" width="360" height="70" rx="14"/><rect x="90" y="310" width="360" height="70" rx="14"/></g><g fill="rgba(255,255,255,0.85)"><circle cx="130" cy="155" r="10"/><circle cx="170" cy="155" r="10"/><circle cx="210" cy="155" r="10"/><circle cx="130" cy="250" r="10"/><circle cx="170" cy="250" r="10"/><circle cx="210" cy="250" r="10"/><circle cx="130" cy="345" r="10"/><circle cx="170" cy="345" r="10"/><circle cx="210" cy="345" r="10"/></g><g fill="none" stroke="rgba(255,255,255,0.6)" stroke-width="8"><path d="M520 300c60-70 170-60 210 30"/><path d="M520 340c70-50 170-30 210 60"/></g></svg>