<svg xmlns="http://www.w3.org/2000/svg" viewBox="0 0 1920 1080" width="1920" height="1080">
<defs>
  <linearGradient id="bg" x1="0" y1="0" x2="1" y2="1">
    <stop offset="0" stop-color="#07142a"/>
    <stop offset="0.55" stop-color="#081a2f"/>
    <stop offset="1" stop-color="#041b1a"/>
  </linearGradient>
  <radialGradient id="glow1" cx="20%" cy="15%" r="55%">
    <stop offset="0" stop-color="#2f7cfb" stop-opacity="0.35"/>
    <stop offset="1" stop-color="#2f7cfb" stop-opacity="0"/>
  </radialGradient>
  <radialGradient id="glow2" cx="80%" cy="20%" r="55%">
    <stop offset="0" stop-color="#22c55e" stop-opacity="0.20"/>
    <stop offset="1" stop-color="#22c55e" stop-opacity="0"/>
  </radialGradient>
  <radialGradient id="glow3" cx="60%" cy="100%" r="60%">
    <stop offset="0" stop-color="#a855f7" stop-opacity="0.14"/>
    <stop offset="1" stop-color="#a855f7" stop-opacity="0"/>
  </radialGradient>
  <filter id="blur" x="-10%" y="-10%" width="120%" height="120%">
    <feGaussianBlur stdDeviation="10" />
  </filter>
  <filter id="soft" x="-20%" y="-20%" width="140%" height="140%">
    <feGaussianBlur stdDeviation="1.2" />
  </filter>
</defs>
<rect x="0" y="0" width="1920" height="1080" fill="url(#bg)"/>
<rect x="0" y="0" width="1920" height="1080" fill="url(#glow1)"/>
<rect x="0" y="0" width="1920" height="1080" fill="url(#glow2)"/>
<rect x="0" y="0" width="1920" height="1080" fill="url(#glow3)"/>
<g opacity="0.10" stroke="#ffffff" stroke-width="1">
<line x1="0" y1="0" x2="0" y2="1080"/>
<line x1="120" y1="0" x2="120" y2="1080"/>
<line x1="240" y1="0" x2="240" y2="1080"/>
<line x1="360" y1="0" x2="360" y2="1080"/>
<line x1="480" y1="0" x2="480" y2="1080"/>
<line x1="600" y1="0" x2="600" y2="1080"/>
<line x1="720" y1="0" x2="720" y2="1080"/>
<line x1="840" y1="0" x2="840" y2="1080"/>
<line x1="960" y1="0" x2="960" y2="1080"/>
<line x1="1080" y1="0" x2="1080" y2="1080"/>
<line x1="1200" y1="0" x2="1200" y2="1080"/>
<line x1="1320" y1="0" x2="1320" y2="1080"/>
<line x1="1440" y1="0" x2="1440" y2="1080"/>
<line x1="1560" y1="0" x2="1560" y2="1080"/>
<line x1="1680" y1="0" x2="1680" y2="1080"/>
<line x1="1800" y1="0" x2="1800" y2="1080"/>
<line x1="1920" y1="0" x2="1920" y2="1080"/>
<line x1="0" y1="0" x2="1920" y2="0"/>
<line x1="0" y1="120" x2="1920" y2="120"/>
<line x1="0" y1="240" x2="1920" y2="240"/>
<line x1="0" y1="360" x2="1920" y2="360"/>
<line x1="0" y1="480" x2="1920" y2="480"/>
<line x1="0" y1="600" x2="1920" y2="600"/>
<line x1="0" y1="720" x2="1920" y2="720"/>
<line x1="0" y1="840" x2="1920" y2="840"/>
<line x1="0" y1="960" x2="1920" y2="960"/>
<line x1="0" y1="1080" x2="1920" y2="1080"/>
</g>
<g stroke="#cfe2ff" stroke-opacity="0.22" stroke-width="2" fill="none">
<path d="M536.6,989.7 L393.2,1016.3" />
<path d="M6.5,732.2 L207.5,808.3" />
<path d="M306.4,860.9 L207.5,808.3" />
<path d="M207.5,808.3 L93.2,1065.6" />
<path d="M1439.6,912.5 L1323.2,1076.5" />
<path d="M900.6,266.3 L1046.7,337.4" />
<path d="M1185.5,136.8 L1046.7,337.4" />
<path d="M1673.1,226.2 L1833.9,212.2" />
<path d="M1196.0,801.1 L1439.6,912.5" />
<path d="M1673.1,226.2 L1762.7,367.2" />
<path d="M1886.2,942.2 L1784.9,1017.4" />
<path d="M109.4,1053.1 L93.2,1065.6" />
<path d="M1846.0,582.4 L1762.7,367.2" />
<path d="M536.6,989.7 L595.1,884.0" />
<path d="M900.6,266.3 L1102.0,14.2" />
<path d="M606.3,519.7 L681.2,566.7" />
<path d="M900.6,266.3 L693.5,179.2" />
<path d="M693.5,179.2 L606.3,519.7" />
<path d="M1833.9,212.2 L1650.6,39.6" />
<path d="M17.4,50.5 L340.8,84.5" />
<path d="M1809.5,799.1 L1846.0,582.4" />
<path d="M55.7,502.9 L6.5,732.2" />
<path d="M109.4,1053.1 L207.5,808.3" />
<path d="M55.7,502.9 L175.1,368.0" />
<path d="M306.4,860.9 L393.2,1016.3" />
<path d="M125.1,325.5 L17.4,50.5" />
<path d="M125.1,325.5 L175.1,368.0" />
<path d="M125.1,325.5 L340.8,84.5" />
<path d="M393.2,1016.3 L595.1,884.0" />
<path d="M1512.5,395.5 L1762.7,367.2" />
<path d="M1102.0,14.2 L1185.5,136.8" />
<path d="M1196.0,801.1 L1246.0,973.0" />
<path d="M1246.0,973.0 L1439.6,912.5" />
<path d="M1833.9,212.2 L1762.7,367.2" />
<path d="M1886.2,942.2 L1855.8,965.2" />
<path d="M1673.1,226.2 L1512.5,395.5" />
<path d="M1809.5,799.1 L1855.8,965.2" />
<path d="M1246.0,973.0 L1323.2,1076.5" />
<path d="M595.1,884.0 L681.2,566.7" />
<path d="M1809.5,799.1 L1886.2,942.2" />
<path d="M1673.1,226.2 L1650.6,39.6" />
<path d="M55.7,502.9 L125.1,325.5" />
<path d="M1855.8,965.2 L1784.9,1017.4" />
</g>
<g stroke="#7fb3ff" stroke-opacity="0.18" stroke-width="2.2" fill="none">
<path d="M524.6,313.1 Q1004.2,548.7 1512.2,821.9"/>
<path d="M154.8,899.5 Q726.3,628.3 1081.1,534.4"/>
<path d="M868.6,928.6 Q1078.5,843.0 1540.1,788.8"/>
<path d="M253.6,837.9 Q927.8,753.2 1282.4,499.5"/>
<path d="M1126.7,499.9 Q1272.1,568.9 1430.9,738.3"/>
<path d="M522.4,234.6 Q1081.1,628.7 1345.5,962.0"/>
<path d="M623.3,400.4 Q964.1,460.0 1124.5,343.3"/>
<path d="M477.6,787.1 Q1116.8,809.9 1651.1,708.1"/>
<path d="M479.8,716.7 Q962.1,668.0 1271.7,527.6"/>
<path d="M406.3,925.0 Q824.3,778.6 1555.0,609.7"/>
</g>
<g filter="url(#soft)">
<circle cx="1196.0" cy="801.1" r="11.6" fill="#3b82f6" fill-opacity="0.06"/>
<circle cx="1809.5" cy="799.1" r="12.5" fill="#3b82f6" fill-opacity="0.06"/>
<circle cx="55.7" cy="502.9" r="12.6" fill="#3b82f6" fill-opacity="0.06"/>
<circle cx="1246.0" cy="973.0" r="7.0" fill="#3b82f6" fill-opacity="0.06"/>
<circle cx="900.6" cy="266.3" r="9.9" fill="#3b82f6" fill-opacity="0.06"/>
<circle cx="1102.0" cy="14.2" r="7.7" fill="#3b82f6" fill-opacity="0.06"/>
<circle cx="536.6" cy="989.7" r="11.4" fill="#3b82f6" fill-opacity="0.06"/>
<circle cx="306.4" cy="860.9" r="7.2" fill="#3b82f6" fill-opacity="0.06"/>
<circle cx="1185.5" cy="136.8" r="6.3" fill="#3b82f6" fill-opacity="0.06"/>
<circle cx="1673.1" cy="226.2" r="7.7" fill="#3b82f6" fill-opacity="0.06"/>
<circle cx="1886.2" cy="942.2" r="8.2" fill="#3b82f6" fill-opacity="0.06"/>
<circle cx="1846.0" cy="582.4" r="10.8" fill="#3b82f6" fill-opacity="0.06"/>
<circle cx="393.2" cy="1016.3" r="10.9" fill="#3b82f6" fill-opacity="0.06"/>
<circle cx="1855.8" cy="965.2" r="8.3" fill="#3b82f6" fill-opacity="0.06"/>
<circle cx="693.5" cy="179.2" r="7.2" fill="#3b82f6" fill-opacity="0.06"/>
<circle cx="125.1" cy="325.5" r="10.3" fill="#3b82f6" fill-opacity="0.06"/>
<circle cx="6.5" cy="732.2" r="8.5" fill="#3b82f6" fill-opacity="0.06"/>
<circle cx="595.1" cy="884.0" r="9.5" fill="#3b82f6" fill-opacity="0.06"/>
<circle cx="606.3" cy="519.7" r="11.0" fill="#3b82f6" fill-opacity="0.06"/>
<circle cx="109.4" cy="1053.1" r="6.4" fill="#3b82f6" fill-opacity="0.06"/>
<circle cx="1439.6" cy="912.5" r="6.4" fill="#3b82f6" fill-opacity="0.06"/>
<circle cx="1512.5" cy="395.5" r="10.2" fill="#3b82f6" fill-opacity="0.06"/>
<circle cx="17.4" cy="50.5" r="7.5" fill="#3b82f6" fill-opacity="0.06"/>
<circle cx="1833.9" cy="212.2" r="11.4" fill="#3b82f6" fill-opacity="0.06"/>
<circle cx="1784.9" cy="1017.4" r="8.6" fill="#3b82f6" fill-opacity="0.06"/>
<circle cx="681.2" cy="566.7" r="11.5" fill="#3b82f6" fill-opacity="0.06"/>
<circle cx="207.5" cy="808.3" r="11.6" fill="#3b82f6" fill-opacity="0.06"/>
<circle cx="1650.6" cy="39.6" r="12.6" fill="#3b82f6" fill-opacity="0.06"/>
<circle cx="175.1" cy="368.0" r="10.4" fill="#3b82f6" fill-opacity="0.06"/>
<circle cx="1762.7" cy="367.2" r="12.5" fill="#3b82f6" fill-opacity="0.06"/>
<circle cx="1046.7" cy="337.4" r="8.4" fill="#3b82f6" fill-opacity="0.06"/>
<circle cx="340.8" cy="84.5" r="7.3" fill="#3b82f6" fill-opacity="0.06"/>
<circle cx="1323.2" cy="1076.5" r="7.3" fill="#3b82f6" fill-opacity="0.06"/>
<circle cx="93.2" cy="1065.6" r="9.9" fill="#3b82f6" fill-opacity="0.06"/>
</g>
<g>
<circle cx="1196.0" cy="801.1" r="4.6" fill="#ffffff" fill-opacity="0.75"/>
<circle cx="1809.5" cy="799.1" r="5.0" fill="#ffffff" fill-opacity="0.75"/>
<circle cx="55.7" cy="502.9" r="5.0" fill="#ffffff" fill-opacity="0.75"/>
<circle cx="1246.0" cy="973.0" r="2.8" fill="#ffffff" fill-opacity="0.75"/>
<circle cx="900.6" cy="266.3" r="4.0" fill="#ffffff" fill-opacity="0.75"/>
<circle cx="1102.0" cy="14.2" r="3.1" fill="#ffffff" fill-opacity="0.75"/>
<circle cx="536.6" cy="989.7" r="4.6" fill="#ffffff" fill-opacity="0.75"/>
<circle cx="306.4" cy="860.9" r="2.9" fill="#ffffff" fill-opacity="0.75"/>
<circle cx="1185.5" cy="136.8" r="2.5" fill="#ffffff" fill-opacity="0.75"/>
<circle cx="1673.1" cy="226.2" r="3.1" fill="#ffffff" fill-opacity="0.75"/>
<circle cx="1886.2" cy="942.2" r="3.3" fill="#ffffff" fill-opacity="0.75"/>
<circle cx="1846.0" cy="582.4" r="4.3" fill="#ffffff" fill-opacity="0.75"/>
<circle cx="393.2" cy="1016.3" r="4.4" fill="#ffffff" fill-opacity="0.75"/>
<circle cx="1855.8" cy="965.2" r="3.3" fill="#ffffff" fill-opacity="0.75"/>
<circle cx="693.5" cy="179.2" r="2.9" fill="#ffffff" fill-opacity="0.75"/>
<circle cx="125.1" cy="325.5" r="4.1" fill="#ffffff" fill-opacity="0.75"/>
<circle cx="6.5" cy="732.2" r="3.4" fill="#ffffff" fill-opacity="0.75"/>
<circle cx="595.1" cy="884.0" r="3.8" fill="#ffffff" fill-opacity="0.75"/>
<circle cx="606.3" cy="519.7" r="4.4" fill="#ffffff" fill-opacity="0.75"/>
<circle cx="109.4" cy="1053.1" r="2.6" fill="#ffffff" fill-opacity="0.75"/>
<circle cx="1439.6" cy="912.5" r="2.5" fill="#ffffff" fill-opacity="0.75"/>
<circle cx="1512.5" cy="395.5" r="4.1" fill="#ffffff" fill-opacity="0.75"/>
<circle cx="17.4" cy="50.5" r="3.0" fill="#ffffff" fill-opacity="0.75"/>
<circle cx="1833.9" cy="212.2" r="4.5" fill="#ffffff" fill-opacity="0.75"/>
<circle cx="1784.9" cy="1017.4" r="3.4" fill="#ffffff" fill-opacity="0.75"/>
<circle cx="681.2" cy="566.7" r="4.6" fill="#ffffff" fill-opacity="0.75"/>
<circle cx="207.5" cy="808.3" r="4.7" fill="#ffffff" fill-opacity="0.75"/>
<circle cx="1650.6" cy="39.6" r="5.1" fill="#ffffff" fill-opacity="0.75"/>
<circle cx="175.1" cy="368.0" r="4.1" fill="#ffffff" fill-opacity="0.75"/>
<circle cx="1762.7" cy="367.2" r="5.0" fill="#ffffff" fill-opacity="0.75"/>
<circle cx="1046.7" cy="337.4" r="3.4" fill="#ffffff" fill-opacity="0.75"/>
<circle cx="340.8" cy="84.5" r="2.9" fill="#ffffff" fill-opacity="0.75"/>
<circle cx="1323.2" cy="1076.5" r="2.9" fill="#ffffff" fill-opacity="0.75"/>
<circle cx="93.2" cy="1065.6" r="3.9" fill="#ffffff" fill-opacity="0.75"/>
</g>
<rect x="0" y="0" width="1920" height="1080" fill="#000000" opacity="0.10" filter="url(#blur)"/>
</svg>