<svg xmlns="http://www.w3.org/2000/svg" viewBox="0 0 800 480"><defs><linearGradient id="g" x1="0" x2="1" y1="1" y2="0"><stop offset="0" stop-color="#22C55E" stop-opacity=".35"/><stop offset="1" stop-color="#3B82F6" stop-opacity=".45"/></linearGradient></defs><rect width="800" height="480" rx="28" fill="rgba(255,255,255,0.06)" stroke="rgba(255,255,255,0.12)"/><circle cx="170" cy="120" r="120" fill="url(#g)"/><g fill="none" stroke="rgba(255,255,255,0.8)" stroke-width="10" stroke-linecap="round" stroke-linejoin="round"><path d="M310 120h180a40 40 0 0 1 40 40v70a40 40 0 0 1-40 40H310a40 40 0 0 1-40-40v-70a40 40 0 0 1 40-40z"/><path d="M330 290v60M470 290v60"/><path d="M400 120v-40"/><path d="M610 210c40-10 70 10 80 40"/></g><g fill="rgba(255,255,255,0.85)"><circle cx="360" cy="195" r="12"/><circle cx="440" cy="195" r="12"/></g><g fill="none" stroke="rgba(255,255,255,0.55)" stroke-width="8"><path d="M580 120c60 40 100 110 90 190"/><path d="M560 320c40 40 90 60 160 60"/></g></svg>